<svg xmlns="http://www.w3.org/2000/svg" version="1.1" xmlns:xlink="http://www.w3.org/1999/xlink" xmlns:svgjs="http://svgjs.dev/svgjs" width="1000" height="1000" viewBox="0 0 1000 1000"><rect width="1000" height="1000" fill="#000000"></rect><g transform="matrix(0.7,0,0,0.7,150.07466666666664,327.2074972972973)"><svg viewBox="0 0 375 185" data-background-color="#000000" preserveAspectRatio="xMidYMid meet" height="493" width="1000" xmlns="http://www.w3.org/2000/svg" xmlns:xlink="http://www.w3.org/1999/xlink"><g id="tight-bounds" transform="matrix(1,0,0,1,-0.03976036071776434,0.13040649414062955)"><svg viewBox="0 0 375.07952880859375 184.73956298828125" height="184.73956298828125" width="375.07952880859375"><g><svg></svg></g><g><svg viewBox="0 0 375.07952880859375 184.73956298828125" height="184.73956298828125" width="375.07952880859375"><g transform="matrix(1,0,0,1,-10.220239639282227,-33.885406494140625)"><path xmlns="http://www.w3.org/2000/svg" d="M10.22 213.315v-179.43h375.08v179.43h-63.898l0-5.326h58.573v-168.778h-364.43v168.778h22.772l0 5.326z" fill="#fcfbfb" fill-rule="nonzero" stroke="none" stroke-width="1" stroke-linecap="butt" stroke-linejoin="miter" stroke-miterlimit="10" stroke-dasharray="" stroke-dashoffset="0" font-family="none" font-weight="none" font-size="none" text-anchor="none" style="mix-blend-mode: normal" data-fill-palette-color="tertiary"></path><g><path xmlns="http://www.w3.org/2000/svg" d="M61.073 214.877h-6.78v-1.022h2.794v-9.881h-2.794v-1.022h6.78v1.022h-2.793v9.881h2.793zM65.588 214.877h-1.192v-8.45h0.971l0.153 1.278h0.068c0.227-0.398 0.588-0.744 1.084-1.04 0.493-0.295 1.069-0.443 1.727-0.443v0c1.034 0 1.806 0.303 2.317 0.91 0.511 0.609 0.767 1.47 0.767 2.583v0 5.162h-1.193v-5.026c0-0.784-0.176-1.397-0.528-1.84-0.352-0.443-0.892-0.664-1.618-0.664v0c-0.704 0-1.306 0.241-1.806 0.722-0.5 0.484-0.75 1.18-0.75 2.089v0zM78.059 204.791v0c-0.284 0-0.53-0.106-0.74-0.316-0.211-0.209-0.317-0.455-0.317-0.74v0c0-0.295 0.106-0.545 0.317-0.749 0.209-0.204 0.455-0.307 0.74-0.307v0c0.295 0 0.545 0.102 0.749 0.307 0.204 0.204 0.307 0.454 0.307 0.749v0c0 0.284-0.102 0.53-0.307 0.74-0.204 0.211-0.454 0.317-0.749 0.316zM81.449 214.877h-6.644v-1.022h2.726v-6.065c0-0.227-0.114-0.341-0.341-0.341v0h-2.045v-1.022h2.386c0.795 0 1.193 0.398 1.192 1.192v0 6.236h2.726zM91.466 214.877h-2.248c-0.738 0-1.315-0.179-1.731-0.538-0.413-0.357-0.62-1.001-0.621-1.932v0-4.958h-2.146v-1.022h1.278c0.591 0 0.926-0.284 1.005-0.852v0l0.204-1.278h0.852v2.13h3.407v1.022h-3.407v4.958c0 0.511 0.116 0.869 0.348 1.073 0.234 0.204 0.641 0.307 1.219 0.307v0h1.84zM98.502 204.791v0c-0.284 0-0.53-0.106-0.739-0.316-0.211-0.209-0.317-0.455-0.317-0.74v0c0-0.295 0.106-0.545 0.317-0.749 0.209-0.204 0.455-0.307 0.739-0.307v0c0.295 0 0.545 0.102 0.75 0.307 0.204 0.204 0.307 0.454 0.307 0.749v0c0 0.284-0.102 0.53-0.307 0.74-0.204 0.211-0.454 0.317-0.75 0.316zM101.893 214.877h-6.645v-1.022h2.726v-6.065c0-0.227-0.114-0.341-0.341-0.341v0h-2.044v-1.022h2.385c0.795 0 1.193 0.398 1.193 1.192v0 6.236h2.726zM108.111 215.081v0c-0.67 0-1.223-0.119-1.66-0.357-0.438-0.239-0.762-0.557-0.971-0.954-0.211-0.398-0.317-0.829-0.316-1.295v0c0-0.886 0.326-1.548 0.977-1.987 0.654-0.436 1.481-0.654 2.481-0.654v0h2.419v-0.153c0-0.795-0.19-1.395-0.569-1.799-0.382-0.402-0.925-0.603-1.629-0.603v0c-0.591 0-1.076 0.127-1.455 0.381-0.382 0.257-0.624 0.658-0.725 1.203v0h-1.261c0.057-0.568 0.246-1.048 0.569-1.441 0.325-0.391 0.737-0.688 1.237-0.893 0.5-0.204 1.045-0.307 1.635-0.306v0c1.181 0 2.041 0.32 2.58 0.96 0.541 0.643 0.811 1.475 0.811 2.498v0 5.196h-1.023l-0.119-1.363h-0.102c-0.25 0.42-0.596 0.786-1.039 1.097-0.443 0.313-1.056 0.47-1.84 0.47zM108.298 213.991v0c0.568 0 1.056-0.142 1.465-0.426 0.409-0.284 0.725-0.653 0.948-1.107 0.22-0.454 0.331-0.931 0.33-1.431v0-0.171h-2.334c-0.84 0-1.433 0.148-1.778 0.443-0.348 0.295-0.521 0.676-0.522 1.142v0c0 0.477 0.159 0.854 0.477 1.131 0.318 0.279 0.789 0.419 1.414 0.419zM122.251 214.877h-6.985v-1.022h2.896v-9.881c0-0.227-0.114-0.341-0.34-0.341v0h-2.215v-1.022h2.555c0.795 0 1.193 0.398 1.193 1.192v0 10.052h2.896zM129.168 204.791v0c-0.284 0-0.53-0.106-0.74-0.316-0.211-0.209-0.317-0.455-0.317-0.74v0c0-0.295 0.106-0.545 0.317-0.749 0.209-0.204 0.455-0.307 0.74-0.307v0c0.295 0 0.545 0.102 0.749 0.307 0.204 0.204 0.307 0.454 0.307 0.749v0c0 0.284-0.102 0.53-0.307 0.74-0.204 0.211-0.454 0.317-0.749 0.316zM132.558 214.877h-6.644v-1.022h2.726v-6.065c0-0.227-0.114-0.341-0.341-0.341v0h-2.044v-1.022h2.385c0.795 0 1.193 0.398 1.192 1.192v0 6.236h2.726zM142.746 214.877h-6.576v-1.124l5.162-6.202h-5.077v-1.124h6.406v1.124l-5.162 6.202h5.247zM149.765 215.081v0c-0.784 0-1.476-0.185-2.079-0.555-0.602-0.368-1.076-0.885-1.421-1.55-0.348-0.663-0.521-1.444-0.521-2.341v0c0-0.897 0.17-1.675 0.511-2.334 0.341-0.659 0.815-1.17 1.424-1.533 0.606-0.363 1.313-0.545 2.12-0.545v0c0.818 0 1.511 0.184 2.078 0.552 0.568 0.37 0.999 0.851 1.295 1.441 0.295 0.591 0.443 1.227 0.443 1.908v0c0 0.114 0 0.233 0 0.358 0 0.125-0.006 0.267-0.017 0.426v0h-6.695c0.034 0.693 0.191 1.263 0.47 1.71 0.277 0.45 0.628 0.785 1.053 1.005 0.427 0.223 0.873 0.334 1.339 0.334v0c0.693 0 1.23-0.145 1.611-0.436 0.379-0.288 0.66-0.683 0.842-1.182v0h1.158c-0.182 0.761-0.57 1.408-1.165 1.942-0.597 0.534-1.413 0.801-2.446 0.8zM149.748 207.313v0c-0.716 0-1.342 0.221-1.881 0.664-0.541 0.443-0.856 1.056-0.947 1.84v0h5.536c-0.045-0.795-0.316-1.412-0.81-1.85-0.493-0.436-1.126-0.654-1.898-0.654zM166.937 214.877h-1.311l3.833-11.925h1.346l3.816 11.925h-1.312l-0.937-3.033h-4.498zM170.157 204.621h-0.068l-1.908 6.201h3.884zM182.849 214.877h-6.116v-1.022h2.249v-6.065c0-0.091-0.034-0.17-0.102-0.239-0.068-0.068-0.148-0.102-0.239-0.102v0h-1.652v-1.022h2.078c0.329 0 0.585 0.085 0.767 0.255 0.182 0.17 0.273 0.42 0.272 0.75v0 0.477h0.069c0.125-0.534 0.373-0.948 0.742-1.244 0.368-0.295 0.847-0.443 1.438-0.442v0h1.704v1.26h-1.704c-0.693 0-1.229 0.227-1.608 0.682-0.382 0.454-0.572 1.062-0.572 1.823v0 3.867h2.674zM193.071 214.877h-6.116v-1.022h2.249v-6.065c0-0.091-0.034-0.17-0.102-0.239-0.068-0.068-0.148-0.102-0.239-0.102v0h-1.652v-1.022h2.078c0.329 0 0.585 0.085 0.767 0.255 0.182 0.17 0.273 0.42 0.272 0.75v0 0.477h0.068c0.125-0.534 0.373-0.948 0.743-1.244 0.368-0.295 0.847-0.443 1.438-0.442v0h1.704v1.26h-1.704c-0.693 0-1.229 0.227-1.608 0.682-0.382 0.454-0.572 1.062-0.573 1.823v0 3.867h2.675zM200.107 215.081v0c-0.67 0-1.223-0.119-1.659-0.357-0.438-0.239-0.763-0.557-0.975-0.954-0.209-0.398-0.313-0.829-0.313-1.295v0c0-0.886 0.327-1.548 0.981-1.987 0.652-0.436 1.478-0.654 2.477-0.654v0h2.419v-0.153c0-0.795-0.19-1.395-0.569-1.799-0.382-0.402-0.925-0.603-1.628-0.603v0c-0.591 0-1.076 0.127-1.455 0.381-0.382 0.257-0.624 0.658-0.726 1.203v0h-1.261c0.057-0.568 0.248-1.048 0.573-1.441 0.323-0.391 0.734-0.688 1.233-0.893 0.5-0.204 1.045-0.307 1.636-0.306v0c1.181 0 2.042 0.32 2.582 0.96 0.538 0.643 0.808 1.475 0.808 2.498v0 5.196h-1.022l-0.12-1.363h-0.102c-0.25 0.42-0.596 0.786-1.039 1.097-0.443 0.313-1.056 0.47-1.84 0.47zM200.294 213.991v0c0.568 0 1.056-0.142 1.466-0.426 0.409-0.284 0.725-0.653 0.947-1.107 0.22-0.454 0.331-0.931 0.33-1.431v0-0.171h-2.334c-0.84 0-1.434 0.148-1.782 0.443-0.345 0.295-0.518 0.676-0.518 1.142v0c0 0.477 0.159 0.854 0.477 1.131 0.318 0.279 0.789 0.419 1.415 0.419zM209.733 218.625h-1.244l2.13-4.651h-0.477l-3.391-7.547h1.295l2.93 6.78 3.118-6.78h1.227zM221.334 215.081v0c-1.056 0-1.919-0.25-2.589-0.749-0.67-0.5-1.045-1.193-1.125-2.079v0h1.244c0.068 0.5 0.32 0.914 0.757 1.244 0.438 0.329 1.021 0.494 1.747 0.494v0c0.704 0 1.221-0.157 1.551-0.47 0.329-0.311 0.494-0.654 0.494-1.029v0c0-0.522-0.195-0.875-0.586-1.056-0.393-0.182-0.993-0.318-1.799-0.409v0c-0.92-0.102-1.67-0.344-2.249-0.726-0.579-0.379-0.869-0.949-0.869-1.71v0c0-0.67 0.286-1.232 0.859-1.687 0.575-0.454 1.35-0.681 2.327-0.681v0c0.977 0 1.747 0.218 2.31 0.654 0.561 0.438 0.876 1.078 0.944 1.918v0h-1.21c-0.023-0.443-0.231-0.801-0.623-1.073-0.391-0.273-0.876-0.409-1.455-0.409v0c-0.613 0-1.088 0.11-1.424 0.33-0.334 0.223-0.501 0.533-0.501 0.931v0c0 0.352 0.182 0.65 0.545 0.892 0.363 0.245 0.943 0.408 1.738 0.487v0c0.591 0.057 1.127 0.161 1.608 0.314 0.484 0.154 0.873 0.402 1.168 0.743 0.295 0.341 0.443 0.818 0.443 1.431v0c0.011 0.5-0.125 0.951-0.408 1.352-0.284 0.404-0.672 0.72-1.166 0.948-0.495 0.227-1.072 0.341-1.731 0.34zM245.066 214.877h-6.78v-1.022h2.794v-9.881h-2.794v-1.022h6.78v1.022h-2.794v9.881h2.794zM249.581 214.877h-1.193v-8.45h0.971l0.154 1.278h0.068c0.227-0.398 0.588-0.744 1.083-1.04 0.493-0.295 1.069-0.443 1.728-0.443v0c1.034 0 1.806 0.303 2.317 0.91 0.511 0.609 0.767 1.47 0.766 2.583v0 5.162h-1.192v-5.026c0-0.784-0.176-1.397-0.528-1.84-0.352-0.443-0.892-0.664-1.619-0.664v0c-0.704 0-1.306 0.241-1.806 0.722-0.5 0.484-0.75 1.18-0.749 2.089v0zM272.341 215.081v0c-0.954 0-1.775-0.259-2.463-0.776-0.686-0.516-1.213-1.237-1.581-2.164-0.37-0.925-0.555-2-0.556-3.227v0c0-1.215 0.185-2.286 0.556-3.213 0.368-0.925 0.895-1.648 1.581-2.17 0.688-0.522 1.509-0.784 2.463-0.784v0c0.965 0 1.789 0.261 2.47 0.784 0.681 0.522 1.207 1.246 1.578 2.17 0.368 0.927 0.552 1.998 0.552 3.213v0c0 1.227-0.184 2.302-0.552 3.227-0.37 0.927-0.896 1.648-1.578 2.164-0.681 0.518-1.505 0.777-2.47 0.776zM272.341 213.957v0c1.011 0 1.825-0.441 2.443-1.322 0.62-0.879 0.93-2.119 0.93-3.721v0c0-1.601-0.31-2.843-0.93-3.724-0.618-0.879-1.432-1.319-2.443-1.319v0c-0.999 0-1.812 0.44-2.436 1.319-0.625 0.881-0.937 2.123-0.937 3.724v0c0 1.601 0.312 2.842 0.937 3.721 0.625 0.881 1.437 1.322 2.436 1.322zM284.829 218.029h-1.312c-0.579-0.647-1.127-1.374-1.642-2.181-0.518-0.806-0.936-1.73-1.254-2.77-0.318-1.038-0.477-2.216-0.477-3.533v0c0-1.317 0.159-2.496 0.477-3.537 0.318-1.038 0.736-1.964 1.254-2.777 0.516-0.811 1.063-1.534 1.642-2.171v0h1.312v0.12c-1.034 1.079-1.874 2.3-2.522 3.663-0.647 1.363-0.971 2.93-0.971 4.702v0c0 1.772 0.324 3.339 0.971 4.702 0.647 1.363 1.488 2.584 2.522 3.662v0zM296.584 214.877h-7.666v-1.09h3.151v-9.421l-2.981 0.596v-0.869l3.339-1.141h0.835v10.835h3.322zM302.053 218.029h-1.312v-0.12c1.034-1.079 1.874-2.3 2.521-3.662 0.647-1.363 0.971-2.93 0.971-4.702v0c0-1.772-0.324-3.339-0.971-4.702-0.647-1.363-1.488-2.584-2.521-3.663v0-0.119h1.312c0.591 0.636 1.141 1.359 1.652 2.17 0.511 0.813 0.926 1.739 1.244 2.777 0.318 1.04 0.477 2.219 0.477 3.537v0c0 1.317-0.159 2.495-0.477 3.533-0.318 1.04-0.733 1.964-1.244 2.77-0.511 0.806-1.062 1.533-1.652 2.181z" fill="#dedede" fill-rule="nonzero" stroke="none" stroke-width="1" stroke-linecap="butt" stroke-linejoin="miter" stroke-miterlimit="10" stroke-dasharray="" stroke-dashoffset="0" font-family="none" font-weight="none" font-size="none" text-anchor="none" style="mix-blend-mode: normal" data-fill-palette-color="secondary"></path></g></g><g transform="matrix(1,0,0,1,29.331764404296877,60.69479153530489)"><svg viewBox="0 0 316.416 63.34997991767148" height="63.34997991767148" width="316.416"><g><svg viewBox="0 0 571.9881163201335 114.51834193601839" height="63.34997991767148" width="316.416"><g><rect width="9.626500763346337" height="114.51834193601839" x="220.74535177839354" y="0" fill="#fcfbfb" opacity="1" stroke-width="0" stroke="transparent" fill-opacity="1" class="rect-o-0" data-fill-palette-color="primary" rx="1%" id="o-0" data-palette-color="#fcfbfb"></rect></g><g transform="matrix(1,0,0,1,255.57211632013343,0.2848714973532722)"><svg viewBox="0 0 316.416 113.94859894131184" height="113.94859894131184" width="316.416"><g><svg viewBox="0 0 316.416 113.94859894131184" height="113.94859894131184" width="316.416"><g><svg viewBox="0 0 316.416 113.94859894131184" height="113.94859894131184" width="316.416"><g transform="matrix(1,0,0,1,0,0)"><svg width="316.416" viewBox="4.5799994468688965 -33.27000045776367 131.8000030517578 44.470001220703125" height="113.94859894131184" data-palette-color="#fcfbfb"><svg></svg><g class="undefined-text-0" data-fill-palette-color="primary" id="text-0"><path xmlns="http://www.w3.org/2000/svg" d="M22.22-14.21h-13.78v14.21h-3.86v-33.27h18.52v3.44h-14.66v12.19h13.78zM30.13-6.85v0c0 1.347 0.413 2.383 1.24 3.11 0.827 0.727 1.98 1.09 3.46 1.09v0c2.38 0 4.233-0.647 5.56-1.94 1.333-1.287 2-3.093 2-5.42v0-2.25l-3.77 0.15c-2.993 0.12-5.157 0.593-6.49 1.42-1.333 0.827-2 2.107-2 3.84zM46.18-17.01v17.01h-2.8l-0.76-3.54h-0.18c-1.247 1.553-2.483 2.607-3.71 3.16-1.233 0.56-2.777 0.84-4.63 0.84v0c-2.493 0-4.437-0.643-5.83-1.93-1.387-1.28-2.08-3.09-2.08-5.43v0c0-5.02 4.02-7.657 12.06-7.91v0l4.24-0.13v-1.54c0-1.987-0.42-3.44-1.26-4.36-0.847-0.92-2.25-1.38-4.21-1.38-1.967 0-4.263 0.633-6.89 1.9v0l-1.16-2.89c2.627-1.427 5.44-2.14 8.44-2.14 3 0 5.213 0.663 6.64 1.99 1.42 1.333 2.13 3.45 2.13 6.35zM65.32-25.38v0c1.147 0 2.14 0.083 2.98 0.25v0l-0.5 3.52c-1-0.22-1.91-0.33-2.73-0.33v0c-2.027 0-3.757 0.817-5.19 2.45-1.427 1.633-2.14 3.673-2.14 6.12v0 13.37h-3.8v-24.92h3.14l0.43 4.6h0.17c0.927-1.64 2.043-2.893 3.35-3.76 1.307-0.867 2.737-1.3 4.29-1.3zM84.33-25.38v0c1.147 0 2.14 0.083 2.98 0.25v0l-0.51 3.52c-0.993-0.22-1.903-0.33-2.73-0.33v0c-2.02 0-3.747 0.817-5.18 2.45-1.433 1.633-2.15 3.673-2.15 6.12v0 13.37h-3.79v-24.92h3.14l0.43 4.6h0.17c0.927-1.64 2.043-2.893 3.35-3.76 1.307-0.867 2.737-1.3 4.29-1.3zM93.12-6.85v0c0 1.347 0.413 2.383 1.24 3.11 0.827 0.727 1.983 1.09 3.47 1.09v0c2.373 0 4.227-0.647 5.56-1.94 1.327-1.287 1.99-3.093 1.99-5.42v0-2.25l-3.76 0.15c-3 0.12-5.167 0.593-6.5 1.42-1.333 0.827-2 2.107-2 3.84zM109.18-17.01v17.01h-2.81l-0.76-3.54h-0.18c-1.247 1.553-2.483 2.607-3.71 3.16-1.233 0.56-2.777 0.84-4.63 0.84v0c-2.493 0-4.433-0.643-5.82-1.93-1.393-1.28-2.09-3.09-2.09-5.43v0c0-5.02 4.02-7.657 12.06-7.91v0l4.25-0.13v-1.54c0-1.987-0.423-3.44-1.27-4.36-0.84-0.92-2.243-1.38-4.21-1.38-1.96 0-4.257 0.633-6.89 1.9v0l-1.16-2.89c2.627-1.427 5.44-2.14 8.44-2.14 3 0 5.213 0.663 6.64 1.99 1.427 1.333 2.14 3.45 2.14 6.35zM116.71 11.2v0c-1.127 0-2.263-0.127-3.41-0.38v0-3.03c0.873 0.18 1.807 0.27 2.8 0.27v0c2.593 0 4.447-1.457 5.56-4.37v0l1.39-3.56-10.06-25.05h4.05l5.46 14.2c1.227 3.373 1.967 5.717 2.22 7.03v0h0.18c0.22-0.86 0.62-2.15 1.2-3.87 0.58-1.72 2.657-7.507 6.23-17.36v0h4.05l-10.72 28.38c-1.047 2.78-2.277 4.767-3.69 5.96-1.42 1.187-3.173 1.78-5.26 1.78z" fill="#fcfbfb" fill-rule="nonzero" stroke="none" stroke-width="1" stroke-linecap="butt" stroke-linejoin="miter" stroke-miterlimit="10" stroke-dasharray="" stroke-dashoffset="0" font-family="none" font-weight="none" font-size="none" text-anchor="none" style="mix-blend-mode: normal" data-fill-palette-color="primary" opacity="1"></path></g></svg></g></svg></g></svg></g></svg></g><g transform="matrix(1,0,0,1,0,11.446717689799158)"><svg viewBox="0 0 195.545088 91.62490655642007" height="91.62490655642007" width="195.545088"><g><svg xmlns="http://www.w3.org/2000/svg" xmlns:xlink="http://www.w3.org/1999/xlink" version="1.1" x="0" y="0" viewBox="8.268999099731445 32.94900131225586 80.56999969482422 37.75200271606445" enable-background="new 0 0 100 100" xml:space="preserve" height="91.62490655642007" width="195.545088" class="icon-icon-0" data-fill-palette-color="accent" id="icon-0"><path d="M11.843 55.019c1.63 0 2.991-1.099 3.42-2.591h62.95l-1.031 2.428 8.084-3.41-8.084-3.41 0.911 2.145H63.586v-1.903h-2.124v1.903H50.916v-2.502h-2.124v2.502H26.983v-2.46h-2.124v2.46h-9.684c-0.512-1.347-1.805-2.309-3.332-2.309-1.974 0-3.574 1.6-3.574 3.574C8.27 53.419 9.87 55.019 11.843 55.019z" fill="#dedede" data-fill-palette-color="accent"></path><path d="M82.477 49.27l3.146 1.327c0.341 0.144 0.563 0.478 0.563 0.848s-0.222 0.705-0.563 0.848l-3.178 1.341c0.654 0.841 1.673 1.384 2.82 1.384 1.974 0 3.574-1.6 3.574-3.574s-1.6-3.574-3.574-3.574c-0.842 0-1.61 0.297-2.22 0.784l0.454-0.491-1.04-0.961-1.441 1.56 1.04 0.961L82.477 49.27z" fill="#dedede" data-fill-palette-color="accent"></path><path d="M36.338 58.469c0 0.523-0.261 1.008-0.698 1.297l1.171 1.771c1.034-0.683 1.651-1.831 1.651-3.068v-0.246h-2.124V58.469z" fill="#dedede" data-fill-palette-color="accent"></path><path d="M27.548 62.011l0.57-2.046c-0.555-0.154-0.976-0.599-1.099-1.161l-2.074 0.456C25.238 60.591 26.235 61.645 27.548 62.011z" fill="#dedede" data-fill-palette-color="accent"></path><rect x="24.859" y="53.378" width="2.124" height="2.829" fill="#dedede" data-fill-palette-color="accent"></rect><rect x="30.653" y="60.021" width="2.829" height="2.124" fill="#dedede" data-fill-palette-color="accent"></rect><rect x="14.783" y="46.029" transform="matrix(0.7071 0.7071 -0.7071 0.7071 38.1886 2.6918)" width="2.124" height="2.829" fill="#dedede" data-fill-palette-color="accent"></rect><rect x="36.338" y="41.249" width="2.124" height="2.829" fill="#dedede" data-fill-palette-color="accent"></rect><path d="M20.383 44.408c0.241-0.241 0.561-0.398 0.898-0.442l-0.272-2.106c-0.8 0.104-1.556 0.475-2.127 1.046l-0.787 0.787 1.502 1.502L20.383 44.408z" fill="#dedede" data-fill-palette-color="accent"></path><rect x="36.338" y="46.907" width="2.124" height="2.829" fill="#dedede" data-fill-palette-color="accent"></rect><path d="M24.817 45.144l2.066-0.491c-0.315-1.326-1.331-2.363-2.651-2.706l-0.533 2.056C24.247 44.145 24.686 44.593 24.817 45.144z" fill="#dedede" data-fill-palette-color="accent"></path><path d="M60.042 68.571c-0.043 0.004-0.087 0.005-0.132 0.005h-2.605v2.124h2.605c0.106 0 0.21-0.004 0.314-0.013L60.042 68.571z" fill="#dedede" data-fill-palette-color="accent"></path><path d="M38.462 36.625c0-0.208 0.04-0.408 0.119-0.597l-1.959-0.819c-0.188 0.45-0.284 0.926-0.284 1.417v1.795h2.124V36.625z" fill="#dedede" data-fill-palette-color="accent"></path><path d="M61.462 67.024c0 0.212-0.042 0.417-0.124 0.61l1.953 0.834c0.195-0.458 0.295-0.943 0.295-1.444v-1.773h-2.124V67.024z" fill="#dedede" data-fill-palette-color="accent"></path><rect x="61.462" y="59.593" width="2.124" height="2.829" fill="#dedede" data-fill-palette-color="accent"></rect><rect x="61.462" y="53.935" width="2.124" height="2.829" fill="#dedede" data-fill-palette-color="accent"></rect><path d="M48.792 67.024c0 0.218 0.02 0.431 0.056 0.638l2.092-0.366c-0.016-0.088-0.023-0.179-0.023-0.272v-2.372h-2.124V67.024z" fill="#dedede" data-fill-palette-color="accent"></path><path d="M54.475 68.577h-2.007c-0.165 0-0.326-0.025-0.481-0.076l-0.655 2.021c0.367 0.119 0.749 0.179 1.136 0.179h2.007V68.577z" fill="#dedede" data-fill-palette-color="accent"></path><rect x="48.792" y="58.995" width="2.124" height="2.829" fill="#dedede" data-fill-palette-color="accent"></rect><rect x="36.338" y="52.565" width="2.124" height="2.829" fill="#dedede" data-fill-palette-color="accent"></rect><rect x="48.792" y="53.337" width="2.124" height="2.829" fill="#dedede" data-fill-palette-color="accent"></rect><path d="M64.382 44.041l-1.036-1.854c-1.162 0.649-1.884 1.879-1.884 3.21v0.052l2.124-0.052C63.586 44.834 63.891 44.314 64.382 44.041z" fill="#dedede" data-fill-palette-color="accent"></path><path d="M48.792 39.192h2.124v-2.561c0-0.126-0.006-0.251-0.019-0.375l-2.112 0.216c0.005 0.048 0.007 0.098 0.007 0.153V39.192z" fill="#dedede" data-fill-palette-color="accent"></path><rect x="66.636" y="41.72" width="2.829" height="2.124" fill="#dedede" data-fill-palette-color="accent"></rect><rect x="77.156" y="43.997" transform="matrix(0.7346 0.6785 -0.6785 0.7346 51.4257 -41.3516)" width="2.829" height="2.124" fill="#dedede" data-fill-palette-color="accent"></rect><path d="M47.828 35.188l0.807-1.965c-0.443-0.182-0.913-0.274-1.395-0.274h-1.812v2.124h1.812C47.443 35.073 47.642 35.111 47.828 35.188z" fill="#dedede" data-fill-palette-color="accent"></path><rect x="48.792" y="42.021" width="2.124" height="2.829" fill="#dedede" data-fill-palette-color="accent"></rect><polygon points="75.124,42.783 75.086,41.72 72.294,41.72 72.294,43.844 75.083,43.844 " fill="#dedede" data-fill-palette-color="accent"></polygon><path d="M40.015 35.073h2.583v-2.124h-2.583c-0.116 0-0.229 0.005-0.341 0.016l0.192 2.115C39.915 35.075 39.964 35.073 40.015 35.073z" fill="#dedede" data-fill-palette-color="accent"></path></svg></g></svg></g></svg></g></svg></g></svg></g><defs></defs></svg><rect width="375.07952880859375" height="184.73956298828125" fill="none" stroke="none" visibility="hidden"></rect></g></svg></g></svg>